<svg width="152" height="152" viewBox="0 0 152 152" fill="none" xmlns="http://www.w3.org/2000/svg">
<rect width="152" height="152" fill="#EE3643"/>
<path fill-rule="evenodd" clip-rule="evenodd" d="M35.8913 35.0001C33.2296 35.0001 33 37.8101 33 37.8101V59.0846C33 63.1276 36.9912 63.0001 36.9912 63.0001H49.3745C52.0349 63.0001 51.5757 65.0555 51.5757 65.0555C51.5757 65.0555 48.1811 82.971 47.8154 86.0018C47.4483 89.0355 45.2472 90.9647 45.2472 90.9647C45.2472 90.9647 42.3119 92.6186 41.1199 93.2617C39.9279 93.9047 39.9279 97.0001 39.9279 97.0001H83V95.2818C83 93.2617 73.4977 90.9647 69.9217 90.5971C66.3444 90.2308 67.0785 87.8402 67.0785 87.8402L68.5455 77.0923H72.6728L74.2319 66.2508H70.1046L70.5597 63.0001H82.3958C90.3768 62.1725 96 56.6968 96 56.6968V40.1584C89.6715 35.6568 79.7354 35.0001 79.7354 35.0001H35.8913ZM115.541 45.0001H134.085C134.876 45.0001 136 46.6708 136 48.5001C136 50.3295 134.876 52.0001 134.085 52.0001H115.541C114.688 55.0495 112.693 57.0001 110.369 57.0001H100V40.0001H110.369C112.694 40.0001 114.688 41.9508 115.541 45.0001ZM42.6004 119C40 119 40 116.176 40 116.176V101.019H83V116.268C83 118.747 80.2144 119 80.2144 119H42.6004ZM82 42.523V42.4772C82 41.6648 81.3806 41.0001 80.6237 41.0001H39.3763C38.6193 41.0001 38 41.6648 38 42.4772V42.523C38 43.3354 38.6193 44.0001 39.3763 44.0001H80.6237C81.3806 44.0001 82 43.3354 82 42.523Z" fill="white"/>
</svg>
