<svg width="14" height="12" viewBox="0 0 14 12" fill="none" xmlns="http://www.w3.org/2000/svg">
<path d="M2 7.99999V12H6V7.99999H8V12H12V7.99999L7 3.51599L2 7.99999Z" fill="#C1C6CE"/>
<path d="M13.831 6.365L12 4.751V0H10V2.987L7.33201 0.635C7.31201 0.618 7.28901 0.612 7.26801 0.598C7.24297 0.579705 7.21617 0.56396 7.18801 0.551C7.15711 0.540195 7.12532 0.532163 7.09301 0.527C7.06201 0.521 7.03201 0.515 7.00001 0.515C6.96901 0.515 6.93901 0.521 6.90801 0.527C6.87554 0.531919 6.84369 0.5403 6.81301 0.552C6.78501 0.563 6.76001 0.581 6.73301 0.598C6.71201 0.612 6.68801 0.618 6.66901 0.635L0.171006 6.365C0.0162706 6.50291 -0.0375648 6.72187 0.0355779 6.9158C0.108721 7.10974 0.293738 7.23862 0.501006 7.24C0.622937 7.24035 0.740742 7.19586 0.832006 7.115L7.00001 1.677L13.169 7.115C13.3778 7.27913 13.6784 7.25178 13.8542 7.05265C14.03 6.85352 14.0198 6.55183 13.831 6.365Z" fill="#C1C6CE"/>
</svg>
