<svg width="108" height="18" viewBox="0 0 108 18" fill="none" xmlns="http://www.w3.org/2000/svg">
<path fill-rule="evenodd" clip-rule="evenodd" d="M103.847 2.65852V17.4498H101.734V2.65852H97.9779V1.01504H107.604V2.65852H103.847ZM95.7123 11.3572C95.3444 11.819 94.8827 12.1477 94.327 12.3433C93.7714 12.539 93.1101 12.6368 92.3431 12.6368C91.9831 12.6368 91.5762 12.6133 91.1223 12.5663C90.6683 12.5194 90.2927 12.4646 89.9953 12.402V17.4498H87.8823V1.24983C88.477 1.07765 89.0757 0.956349 89.6783 0.885914C90.281 0.815479 90.9344 0.780262 91.6388 0.780262C92.5779 0.780262 93.3762 0.878088 94.0336 1.07374C94.6909 1.26939 95.2231 1.59418 95.6301 2.04809C96.037 2.502 96.3344 3.10461 96.5223 3.85591C96.7101 4.60722 96.804 5.53852 96.804 6.64983C96.804 7.79244 96.714 8.74722 96.534 9.51418C96.354 10.2811 96.0801 10.8955 95.7123 11.3572ZM94.5149 4.53678C94.3975 3.97331 94.2136 3.52722 93.9631 3.19852C93.7127 2.86983 93.3957 2.63896 93.0123 2.50591C92.6288 2.37287 92.1709 2.30635 91.6388 2.30635H89.9953V10.9933H91.6388C92.1709 10.9933 92.6288 10.9268 93.0123 10.7937C93.3957 10.6607 93.7127 10.4298 93.9631 10.1011C94.2136 9.77244 94.3975 9.32635 94.5149 8.76287C94.6322 8.19939 94.6909 7.49504 94.6909 6.64983C94.6909 5.80461 94.6322 5.10026 94.5149 4.53678ZM82.5996 13.2237H77.904L76.8475 17.4498H74.7344L78.7257 1.01504H81.7779L85.7692 17.4498H83.6562L82.5996 13.2237ZM80.2988 3.36287H80.2049L78.2562 11.5803H82.2475L80.2988 3.36287ZM70.1562 5.24113H70.0388L66.6344 15.3368H64.5214L61.117 5.24113H60.9996L60.2953 17.4498H58.1823L59.1214 1.01504H61.704L65.5309 12.2846H65.6249L69.4518 1.01504H72.0344L72.9736 17.4498H70.8605L70.1562 5.24113ZM54.3788 15.9237C53.9405 16.5655 53.4123 17.0194 52.794 17.2855C52.1757 17.5516 51.4675 17.6846 50.6692 17.6846C49.8709 17.6846 49.1627 17.5516 48.5444 17.2855C47.9262 17.0194 47.3979 16.5655 46.9596 15.9237C46.5214 15.282 46.1888 14.4172 45.9618 13.3294C45.7349 12.2416 45.6214 10.8759 45.6214 9.23244C45.6214 7.58896 45.7349 6.22331 45.9618 5.13548C46.1888 4.04765 46.5214 3.18287 46.9596 2.54113C47.3979 1.89939 47.9262 1.44548 48.5444 1.17939C49.1627 0.913305 49.8709 0.780262 50.6692 0.780262C51.4675 0.780262 52.1757 0.913305 52.794 1.17939C53.4123 1.44548 53.9405 1.89939 54.3788 2.54113C54.817 3.18287 55.1496 4.04765 55.3766 5.13548C55.6036 6.22331 55.717 7.58896 55.717 9.23244C55.717 10.8759 55.6036 12.2416 55.3766 13.3294C55.1496 14.4172 54.817 15.282 54.3788 15.9237ZM53.3575 5.75765C53.1931 4.84983 52.9779 4.12983 52.7118 3.59765C52.4457 3.06548 52.1327 2.69765 51.7727 2.49418C51.4127 2.2907 51.0449 2.18896 50.6692 2.18896C50.2936 2.18896 49.9257 2.2907 49.5657 2.49418C49.2057 2.69765 48.8927 3.06548 48.6266 3.59765C48.3605 4.12983 48.1453 4.84983 47.9809 5.75765C47.8166 6.66548 47.7344 7.82374 47.7344 9.23244C47.7344 10.6411 47.8166 11.7994 47.9809 12.7072C48.1453 13.615 48.3605 14.335 48.6266 14.8672C48.8927 15.3994 49.2057 15.7672 49.5657 15.9707C49.9257 16.1742 50.2936 16.2759 50.6692 16.2759C51.0449 16.2759 51.4127 16.1742 51.7727 15.9707C52.1327 15.7672 52.4457 15.3994 52.7118 14.8672C52.9779 14.335 53.1931 13.615 53.3575 12.7072C53.5218 11.7994 53.604 10.6411 53.604 9.23244C53.604 7.82374 53.5218 6.66548 53.3575 5.75765ZM40.6909 9.93678H35.7605V17.4498H33.6475V1.01504H35.7605V8.29331H40.6909V1.01504H42.804V17.4498H40.6909V9.93678ZM29.5396 17.4498L26.6048 10.4063L23.67 17.4498H21.5569L25.0787 8.99765L21.9091 1.01504H24.0222L26.6048 7.58896L29.1874 1.01504H31.3004L28.1309 8.99765L31.6526 17.4498H29.5396ZM12.283 1.01504H20.2656V2.65852H14.3961V8.05852H19.5613V9.702H14.3961V15.8063H20.2656V17.4498H12.283V1.01504ZM6.64825 17.4498H4.53521V2.65852H0.778687V1.01504H10.4048V2.65852H6.64825V17.4498Z" fill="white"/>
</svg>
